<svg width="16" height="17" viewBox="0 0 16 17" fill="none" xmlns="http://www.w3.org/2000/svg">
<g clip-path="url(#clip0_65_259)">
<path d="M15 8.05557C15.003 9.22878 14.7289 10.3861 14.2 11.4333C13.5728 12.6882 12.6086 13.7437 11.4155 14.4816C10.2223 15.2195 8.84731 15.6106 7.44443 15.6111C6.27122 15.6142 5.11387 15.3401 4.06666 14.8111L-1 16.5L0.688886 11.4333C0.159937 10.3861 -0.114171 9.22878 -0.111113 8.05557C-0.11057 6.65269 0.280542 5.27766 1.01841 4.08451C1.75629 2.89135 2.81178 1.92719 4.06666 1.30002C5.11387 0.771075 6.27122 0.496966 7.44443 0.500025H7.88888C9.74163 0.60224 11.4916 1.38426 12.8037 2.69634C14.1157 4.00843 14.8978 5.75837 15 7.61112V8.05557Z" fill="#B4B4B4"/>
</g>
<defs>
<clipPath id="clip0_65_259">
<rect width="16" height="16" fill="white" transform="translate(0 0.5)"/>
</clipPath>
</defs>
</svg>
